<?xml version="1.0" encoding="utf-8"?>
<!-- Generator: Adobe Illustrator 24.0.3, SVG Export Plug-In . SVG Version: 6.00 Build 0)  -->
<svg version="1.1" id="圖層_1" xmlns="http://www.w3.org/2000/svg" xmlns:xlink="http://www.w3.org/1999/xlink" x="0px" y="0px"
	 viewBox="0 0 24 24" style="enable-background:new 0 0 24 24;" xml:space="preserve">
<style type="text/css">
	.st0{fill:none;}
	.st1{fill:#F3C168;}
</style>
<path class="st0" d="M0,0h24v24H0V0z"/>
<path class="st1" d="M5,14.5h14v-6H5V14.5z M11,0.6v3h2v-3H11z M19,3l-1.8,1.8l1.4,1.4l1.8-1.8C20.5,4.5,19,3.1,19,3z M13,22.5v-3
	h-2v3H13z M20.5,18.5l-1.8-1.8l-1.4,1.4L19,20C19,20,20.5,18.5,20.5,18.5z M3.5,4.5l1.8,1.8l1.4-1.4L5,3.1C5,3.1,3.6,4.5,3.5,4.5z
	 M5,20l1.8-1.8l-1.4-1.4l-1.8,1.8C3.6,18.5,5,20,5,20z"/>
</svg>
