<?xml version="1.0" encoding="utf-8"?>
<!-- Generator: Adobe Illustrator 24.0.3, SVG Export Plug-In . SVG Version: 6.00 Build 0)  -->
<svg version="1.1" id="圖層_1" xmlns="http://www.w3.org/2000/svg" xmlns:xlink="http://www.w3.org/1999/xlink" x="0px" y="0px"
	 viewBox="0 0 24 24" style="enable-background:new 0 0 24 24;" xml:space="preserve">
<style type="text/css">
	.st0{fill:none;}
	.st1{fill:#F3C168;}
</style>
<path class="st0" d="M0,0h24v24H0V0z M0,0h24v24H0V0z M0,0h24v24H0V0z"/>
<path class="st1" d="M19,3H5C3.9,3,3,3.9,3,5v14c0,1.1,0.9,2,2,2h14c1.1,0,2-0.9,2-2V5C21,3.9,20.1,3,19,3z M6,7h5v1.5H6V7z M19,19
	H5L19,5V19z M14.5,16v2H16v-2h2v-1.5h-2v-2h-1.5v2h-2V16H14.5z"/>
</svg>
